<svg width="68" height="68" viewBox="0 0 68 68" fill="none" xmlns="http://www.w3.org/2000/svg">
<g filter="url(#filter0_d_5_81)">
<circle cx="34.0233" cy="30.0233" r="28.8083" transform="rotate(0.429187 34.0233 30.0233)" fill="white"/>
<circle cx="34.0233" cy="30.0233" r="28.8083" transform="rotate(0.429187 34.0233 30.0233)" stroke="white"/>
</g>
<mask id="mask0_5_81" style="mask-type:alpha" maskUnits="userSpaceOnUse" x="9" y="21" width="50" height="18">
<line x1="0.85" y1="-0.85" x2="8.54554" y2="-0.85" transform="matrix(-0.00749066 0.999972 0.999972 0.00749066 30.8329 29.3883)" stroke="black" stroke-width="1.7" stroke-linecap="round"/>
<line x1="0.85" y1="-0.85" x2="8.54554" y2="-0.85" transform="matrix(-0.00749066 0.999972 0.999972 0.00749066 25.8923 29.3513)" stroke="black" stroke-width="1.7" stroke-linecap="round"/>
<line x1="0.85" y1="-0.85" x2="8.54554" y2="-0.85" transform="matrix(-0.00749066 0.999972 0.999972 0.00749066 20.9516 29.3144)" stroke="black" stroke-width="1.7" stroke-linecap="round"/>
<line x1="0.85" y1="-0.85" x2="11.23" y2="-0.85" transform="matrix(-0.00749066 0.999972 0.999972 0.00749066 18.5014 26.6115)" stroke="black" stroke-width="1.7" stroke-linecap="round"/>
<line x1="0.85" y1="-0.85" x2="13.9144" y2="-0.85" transform="matrix(-0.00749066 0.999972 0.999972 0.00749066 23.4621 23.9641)" stroke="black" stroke-width="1.7" stroke-linecap="round"/>
<line x1="0.85" y1="-0.85" x2="13.9144" y2="-0.85" transform="matrix(-0.00749066 0.999972 0.999972 0.00749066 16.0512 23.9086)" stroke="black" stroke-width="1.7" stroke-linecap="round"/>
<line x1="0.85" y1="-0.85" x2="16.5989" y2="-0.85" transform="matrix(-0.00749066 0.999972 0.999972 0.00749066 13.601 21.2057)" stroke="black" stroke-width="1.7" stroke-linecap="round"/>
<line x1="0.85" y1="-0.85" x2="12.5722" y2="-0.85" transform="matrix(-0.00749066 0.999972 0.999972 0.00749066 11.1005 25.2138)" stroke="black" stroke-width="1.7" stroke-linecap="round"/>
<line x1="0.85" y1="-0.85" x2="12.5722" y2="-0.85" transform="matrix(-0.00749066 0.999972 0.999972 0.00749066 33.3334 25.3803)" stroke="black" stroke-width="1.7" stroke-linecap="round"/>
<line x1="0.85" y1="-0.85" x2="12.5722" y2="-0.85" transform="matrix(-0.00749066 0.999972 0.999972 0.00749066 28.3927 25.3433)" stroke="black" stroke-width="1.7" stroke-linecap="round"/>
<line x1="0.85" y1="-0.85" x2="8.54554" y2="-0.85" transform="matrix(-0.00749066 0.999972 0.999972 0.00749066 55.8329 29.3883)" stroke="black" stroke-width="1.7" stroke-linecap="round"/>
<line x1="0.85" y1="-0.85" x2="8.54554" y2="-0.85" transform="matrix(-0.00749066 0.999972 0.999972 0.00749066 50.8923 29.3513)" stroke="black" stroke-width="1.7" stroke-linecap="round"/>
<line x1="0.85" y1="-0.85" x2="8.54554" y2="-0.85" transform="matrix(-0.00749066 0.999972 0.999972 0.00749066 45.9516 29.3144)" stroke="black" stroke-width="1.7" stroke-linecap="round"/>
<line x1="0.85" y1="-0.85" x2="11.23" y2="-0.85" transform="matrix(-0.00749066 0.999972 0.999972 0.00749066 43.5014 26.6115)" stroke="black" stroke-width="1.7" stroke-linecap="round"/>
<line x1="0.85" y1="-0.85" x2="13.9144" y2="-0.85" transform="matrix(-0.00749066 0.999972 0.999972 0.00749066 48.4621 23.9641)" stroke="black" stroke-width="1.7" stroke-linecap="round"/>
<line x1="0.85" y1="-0.85" x2="13.9144" y2="-0.85" transform="matrix(-0.00749066 0.999972 0.999972 0.00749066 41.0512 23.9086)" stroke="black" stroke-width="1.7" stroke-linecap="round"/>
<line x1="0.85" y1="-0.85" x2="16.5989" y2="-0.85" transform="matrix(-0.00749066 0.999972 0.999972 0.00749066 38.601 21.2057)" stroke="black" stroke-width="1.7" stroke-linecap="round"/>
<line x1="0.85" y1="-0.85" x2="12.5722" y2="-0.85" transform="matrix(-0.00749066 0.999972 0.999972 0.00749066 36.1005 25.2138)" stroke="black" stroke-width="1.7" stroke-linecap="round"/>
<line x1="0.85" y1="-0.85" x2="12.5722" y2="-0.85" transform="matrix(-0.00749066 0.999972 0.999972 0.00749066 58.3334 25.3803)" stroke="black" stroke-width="1.7" stroke-linecap="round"/>
<line x1="0.85" y1="-0.85" x2="12.5722" y2="-0.85" transform="matrix(-0.00749066 0.999972 0.999972 0.00749066 53.3927 25.3433)" stroke="black" stroke-width="1.7" stroke-linecap="round"/>
</mask>
<g mask="url(#mask0_5_81)">
<rect x="13.6917" y="20.0279" width="44.6529" height="16.8049" transform="rotate(0.429187 13.6917 20.0279)" fill="#D9D9D9" stroke="url(#paint0_linear_5_81)" stroke-width="16.8049"/>
</g>
<defs>
<filter id="filter0_d_5_81" x="0.714966" y="0.714966" width="66.6167" height="66.6167" filterUnits="userSpaceOnUse" color-interpolation-filters="sRGB">
<feFlood flood-opacity="0" result="BackgroundImageFix"/>
<feColorMatrix in="SourceAlpha" type="matrix" values="0 0 0 0 0 0 0 0 0 0 0 0 0 0 0 0 0 0 127 0" result="hardAlpha"/>
<feOffset dy="4"/>
<feGaussianBlur stdDeviation="2"/>
<feComposite in2="hardAlpha" operator="out"/>
<feColorMatrix type="matrix" values="0 0 0 0 0 0 0 0 0 0 0 0 0 0 0 0 0 0 0.25 0"/>
<feBlend mode="normal" in2="BackgroundImageFix" result="effect1_dropShadow_5_81"/>
<feBlend mode="normal" in="SourceGraphic" in2="effect1_dropShadow_5_81" result="shape"/>
</filter>
<linearGradient id="paint0_linear_5_81" x1="36.0813" y1="11.5628" x2="36.0813" y2="45.1725" gradientUnits="userSpaceOnUse">
<stop stop-color="#28A75D"/>
<stop offset="1" stop-color="#28A75D"/>
</linearGradient>
</defs>
</svg>
